# xmcd
#
# Track frame offsets:
#	183
#	13373
#	23085
#	33483
#	43160
#	57828
#	67003
#	76248
#	90058
#	101993
#	112403
#	123545
#	137643
#	149825
#	163630
#	174995
#	187458
#	202960
#	216035
#	225670
#	238225
#	252428
#	263213
#
# Disc length: 3666 seconds
#
# Revision: 5
# Processed by: cddbd v1.5.1PL0 Copyright (c) Steve Scherf et al.
# Submitted via: audiograbber 1.83.01
#
DISCID=5d0e5017
DTITLE=Various Artist - Country Smash Hits Vol.1
DYEAR=1985
DGENRE=Country
TTITLE0=Lynn Anderson - Rose Garden
TTITLE1=Ned Miller - From A Jack To A King
TTITLE2=Jan Howard - Evil On My Mind
TTITLE3=Hank Locklin - Geisha Girl
TTITLE4=Jody Miller - Baby I'm Yours
TTITLE5=Merle Kilgore - Dear Mama
TTITLE6=Jean Shephard - Second Fiddle (To An Old Guitar)
TTITLE7=Nat Stuckley - Take Time To Love Her
TTITLE8=Skeeter Davis - The End Of The World
TTITLE9=Wanda Jackson - It's Only Make Believe
TTITLE10=Faron Young - The Yellow Bandana
TTITLE11=Jeannie Seeley - Can I Sleep In Your Arms
TTITLE12=Sandy Posey - Devoted To You
TTITLE13=Lobo - Me And You And A Dog Named Boo
TTITLE14=Kitty Wells - It Wasn't God Who Made Honky Tonk Angels
TTITLE15=Don Williams feat. The Poso Seco Singers - Apartment Number 9
TTITLE16=The Winston Brothers - Red Light Blues
TTITLE17=Faron Young - It's Four In The Morning
TTITLE18=Ned Miller - Invisible Tears
TTITLE19=Jack Blanchard and Misty Morgan - Tennessee Bird Walk
TTITLE20=Bob Luman - Lonely Women Make Good Lovers
TTITLE21=Ferlin Husky - Wings Of A Dove
TTITLE22=Tom Astor - You Can't Win Without Having Lost
EXTD=
EXTT0=
EXTT1=
EXTT2=
EXTT3=
EXTT4=
EXTT5=
EXTT6=
EXTT7=
EXTT8=
EXTT9=
EXTT10=
EXTT11=
EXTT12=
EXTT13=
EXTT14=
EXTT15=
EXTT16=
EXTT17=
EXTT18=
EXTT19=
EXTT20=
EXTT21=
EXTT22=
PLAYORDER=
